<svg style="width:23rem" aria-label="Belief" xmlns:xlink="http://www.w3.org/1999/xlink" xmlns="http://www.w3.org/2000/svg" viewBox="42.85 129.25 49.55 31.82"><defs><linearGradient id="prefix__a"><stop offset="0" stop-color="#538d5b"/><stop offset=".475" stop-color="#79a97f"/><stop offset="1" stop-color="#a3c9a8"/></linearGradient><linearGradient xlink:href="#prefix__a" id="prefix__b" x1="88.09" y1="254.56" x2="218.976" y2="174.4" gradientUnits="userSpaceOnUse" spreadMethod="pad" gradientTransform="matrix(.35997 0 0 .35997 12.366 67.688)"/></defs><path d="M57.164 159.84c-1.152 0-2.361-.274-3.628-.821a6.168 6.168 0 01-2.894-2.592l-.821 2.894h-5.745v-28.855h6.566v10.367a6.414 6.414 0 012.894-2.635c1.267-.604 2.476-.907 3.628-.907 1.843 0 3.47.447 4.881 1.34 1.44.892 2.563 2.174 3.37 3.844.806 1.641 1.21 3.628 1.21 5.961s-.404 4.363-1.21 6.09c-.807 1.7-1.93 3.01-3.37 3.931-1.41.922-3.038 1.383-4.88 1.383zm-2.073-5.097c1.267 0 2.361-.548 3.283-1.642.95-1.123 1.425-2.678 1.425-4.665 0-1.958-.475-3.456-1.425-4.492-.922-1.037-2.016-1.556-3.283-1.556-1.296 0-2.42.49-3.37 1.47-.921.95-1.382 2.519-1.382 4.708 0 2.217.461 3.8 1.382 4.751.95.95 2.074 1.426 3.37 1.426zm25.356 5.097c-2.304 0-4.348-.447-6.134-1.34a10.285 10.285 0 01-4.147-3.93c-.979-1.7-1.468-3.73-1.468-6.09 0-2.276.518-4.248 1.555-5.919a11.084 11.084 0 014.19-3.887c1.756-.922 3.671-1.383 5.745-1.383 2.361 0 4.377.562 6.047 1.685 1.7 1.094 2.98 2.62 3.845 4.579.864 1.93 1.224 4.161 1.08 6.695H75.307c.115 1.498.662 2.62 1.641 3.37 1.008.748 2.117 1.123 3.326 1.123 1.008 0 1.872-.144 2.592-.432.749-.317 1.325-.706 1.728-1.167l5.227 1.901c-1.124 1.641-2.535 2.85-4.234 3.628-1.67.778-3.383 1.167-5.14 1.167zm-5.14-13.477h9.762c-.029-1.383-.504-2.42-1.425-3.11-.922-.72-2.016-1.08-3.283-1.08-1.239 0-2.347.33-3.326.993-.95.662-1.527 1.728-1.728 3.197z" fill="url(#prefix__b)" stroke="#f8f6f2" stroke-linecap="round" stroke-linejoin="round"/></svg>